# xmcd
#
# Track frame offsets: 
#        150
#        19720
#        44194
#        74475
#        91727
#
# Disc length: 1461 seconds
#
# Revision: 0
# Processed by: cddbd v1.5.2PL0 Copyright (c) Steve Scherf et al.
# Submitted via: ExactAudioCopy v0.99pb4
#
DISCID=3f05b305
DTITLE=Predawn Light - Sunrise
DYEAR=2006
DGENRE=Folk/Rock
TTITLE0=Nowhere Fast
TTITLE1=Sunlight Angel
TTITLE2=Blacklight Baby
TTITLE3=Crazy World
TTITLE4=Green Velvet
EXTD=All words and music copyright \n\nL E Dodd\n
EXTT0=
EXTT1=
EXTT2=
EXTT3=
EXTT4=
PLAYORDER=
